<?xml version="1.0" encoding="utf-8"?>
<!-- Generator: Adobe Illustrator 27.0.0, SVG Export Plug-In . SVG Version: 6.00 Build 0)  -->
<svg version="1.1" id="Layer_1" xmlns="http://www.w3.org/2000/svg" xmlns:xlink="http://www.w3.org/1999/xlink" x="0px" y="0px"
	 viewBox="0 0 34 23.4" style="enable-background:new 0 0 34 23.4;" xml:space="preserve">
<style type="text/css">
	.st0{fill:url(#SVGID_1_);}
	.st1{fill:url(#SVGID_00000181801444225388049540000003245678084700755121_);}
	.st2{fill:url(#SVGID_00000160892430592550723320000008071536466357132940_);}
	.st3{fill:url(#SVGID_00000079482706487333078150000002589639675528947363_);}
</style>
<g>
	<g>
		<linearGradient id="SVGID_1_" gradientUnits="userSpaceOnUse" x1="9.1585" y1="3.6821" x2="20.0565" y2="12.1233">
			<stop  offset="1.252031e-06" style="stop-color:#21205F"/>
			<stop  offset="1" style="stop-color:#4EBAEA"/>
		</linearGradient>
		<path class="st0" d="M10.1,5.7c0,0,8.5,4.6,3.3,13l0.6,1.7c0,0,4.6-5.8,7.1-4.9l1.3-0.3L20,14.3c0,0-4,1-2.2-2.9s3.4-6.9,7.6-6.8
			l1-0.3c0,0-5.6-3.4-7.5-2.4c0,0.2,0.1,0.5,0.1,0.7c0.9,0.3,1,0.8,1.1,0.9c0.3,0.8-0.5,2.2-2.3,2.9c0,0-1.9,5.2-4.6-0.4l-0.1-1.7
			L9,4.6L10.1,5.7z"/>
		
			<linearGradient id="SVGID_00000110447644199598090260000011178422882738094726_" gradientUnits="userSpaceOnUse" x1="2.6058" y1="12.1419" x2="13.5038" y2="20.5831">
			<stop  offset="1.252031e-06" style="stop-color:#21205F"/>
			<stop  offset="1" style="stop-color:#4EBAEA"/>
		</linearGradient>
		<path style="fill:url(#SVGID_00000110447644199598090260000011178422882738094726_);" d="M6.4,8.9c0,0-2.1,3.2,2.4,7.5
			c0,0-0.2,5.5-4.7,3.5v-0.8c0.2-0.1,1.1-0.4,1.6-1.3c0.3-0.7,0.2-1.4,0-2c-0.1-0.5-0.6-2.2-1.9-2.6c-0.7-0.2-1.3-0.1-1.6,0
			c-0.6,0.1-1.1,0.4-1.3,0.6c1.5-2.1,3-4.2,4.5-6.3L6.4,8.9z"/>
		
			<linearGradient id="SVGID_00000013903699121437346180000012187228453367350438_" gradientUnits="userSpaceOnUse" x1="12.7635" y1="-0.9721" x2="23.6615" y2="7.4691">
			<stop  offset="1.252031e-06" style="stop-color:#21205F"/>
			<stop  offset="1" style="stop-color:#4EBAEA"/>
		</linearGradient>
		<path style="fill:url(#SVGID_00000013903699121437346180000012187228453367350438_);" d="M21.7,9.6c1.2,1.1,2.8,1.4,4,0.8
			c1.4-0.8,1.5-2.6,1.6-3.2c0.1-1.1-0.2-2.1-0.4-2.6c1.2,0.8,2.3,1.6,3.5,2.4l1.6,3.1l-1.2-0.8c-0.3-0.2-0.8-0.4-1.4-0.3
			c-1.4,0.2-2.6,2.3-1.9,3.7c0.5,1,1.8,1.2,2,1.2c0,0-0.9,1.8-3.8,0.8C24.2,14.2,20.9,8.2,21.7,9.6L21.7,9.6z"/>
	</g>
	
		<linearGradient id="SVGID_00000061464411761757420140000011228161562988231848_" gradientUnits="userSpaceOnUse" x1="-24.9888" y1="-15.3432" x2="19.4449" y2="15.0377">
		<stop  offset="1.246703e-06" style="stop-color:#114B8D"/>
		<stop  offset="1" style="stop-color:#357CC0"/>
	</linearGradient>
	<path style="fill:url(#SVGID_00000061464411761757420140000011228161562988231848_);" d="M33.5,10.1c-1.4-3.3-3.9-5.3-5.5-6.4
		c-1.9-1.3-3.6-1.8-4-2c-2.1-0.6-3.7-0.7-4.6-0.7C11,1.1,5.8,5.6,5.8,5.6c-3.6,3.2-5,7-5.6,9c-0.1,0.3-0.7,2.7,0.7,4.6
		c1,1.3,2.5,1.9,2.8,2c0.4,0.1,0.7,0.2,0.9,0.3c1.6,0.5,7.7,2,11-1.1c0.2-0.2,0.5-0.5,0.7-0.8c0.8-0.8,2.8-2.7,5.9-3.4
		c1.6-0.3,3-0.2,4-0.1C26.2,16,36.3,16.6,33.5,10.1z M6.9,18.3c-0.2,0.2-0.6,0.5-1.3,0.6c-1.3,0.2-2.5-0.6-3-1.2
		c-1.2-1.4-0.6-4.5,1.8-7.3C4.6,10.3,5,10,5.4,10c1.4-0.1,2.4,2,2.5,2.3c0.5,1,0.5,1.8,0.5,2.3C8.4,15,8.4,17.1,6.9,18.3z M9.9,10.2
		c-0.2-0.5-0.5-0.9-1-1.5C8.6,8.3,8.5,8.1,8.4,7.8c-0.1-0.5,0.2-1,0.3-1.1C9,6.4,9.4,6.1,10.1,5.9c1.4-0.4,2.6-0.2,2.9-0.2
		C15,6.1,16.4,7,17.3,7.6C17.6,8,18,8.4,17.9,8.8c-0.1,0.4-0.8,0.6-1.6,0.6c-2.3,0.1-4.2,2.1-5.2,2.2c-0.2,0-0.4,0.1-0.7-0.1
		C10.1,11.3,10.2,10.9,9.9,10.2z M21.9,13.3c-0.1,0.3-0.3,0.6-0.4,0.6c-0.2,0.2-0.5,0.2-0.7,0.3c-0.4,0.1-0.6,0-1,0
		c-0.3,0-0.5,0.1-0.6,0.1c0,0-0.6,0.1-1.1,0.3c-1.5,0.6-2.6,1.9-3.1,2.5c-0.7,0.8-1.1,1.5-1.9,1.7c-0.2,0.1-0.8,0.2-1.3-0.1
		c-0.7-0.4-1-1.3-0.8-2.4c0.2-0.6,0.5-1.5,1.3-2.4c0.9-1,1.8-1.4,2.7-1.8c1.8-0.8,3.4-0.9,4.3-0.8c0.8,0,2,0.1,2.5,0.9
		C21.7,12.2,22.1,12.7,21.9,13.3z M30.4,13c-0.6,0.6-1.4,0.5-1.9,0.5c-1.5-0.1-2.5-1-2.8-1.3c-1.2-1.2-2.3-2.2-3.2-3
		c-0.9-0.8-1.6-1.3-2.6-2c-0.9-0.7-1.6-1.1-2.2-1.4c-1.4-0.7-2.2-1-2.3-1.6c0-0.3,0.2-0.5,0.3-0.7c0.5-0.6,1.3-0.7,1.9-0.8
		c2.5-0.2,4.7,0.6,4.7,0.6C24.3,4,28,5.2,30.1,8.7c0.3,0.6,0.5,1.1,0.7,1.4C31.2,11.3,31,12.4,30.4,13z"/>
</g>
</svg>
